<?xml version="1.0" encoding="utf-8"?>
<!-- Generator: Adobe Illustrator 18.1.1, SVG Export Plug-In . SVG Version: 6.00 Build 0)  -->
<svg version="1.1" id="Layer_1" xmlns="http://www.w3.org/2000/svg" xmlns:xlink="http://www.w3.org/1999/xlink" x="0px" y="0px"
	 viewBox="0 0 27.3 26.3" enable-background="new 0 0 27.3 26.3" xml:space="preserve">
<g>
	<path fill="#67676B" d="M16.9,8.5c0,0.1,0,0.2-0.1,0.3l-4.4,4.4l4.4,4.4c0.1,0.1,0.1,0.2,0.1,0.3s0,0.2-0.1,0.3l-0.6,0.6
		c-0.1,0.1-0.2,0.1-0.3,0.1c-0.1,0-0.2,0-0.3-0.1l-5.2-5.2c-0.1-0.1-0.1-0.2-0.1-0.3c0-0.1,0-0.2,0.1-0.3l5.2-5.2
		c0.1-0.1,0.2-0.1,0.3-0.1c0.1,0,0.2,0,0.3,0.1l0.6,0.6C16.9,8.4,16.9,8.4,16.9,8.5z"/>
	<circle fill="none" stroke="#67676B" stroke-width="1.3302" stroke-miterlimit="10" cx="13.7" cy="12.8" r="11.6"/>
</g>
</svg>
