<?xml version="1.0" encoding="utf-8"?>
<!-- Generator: Adobe Illustrator 18.1.1, SVG Export Plug-In . SVG Version: 6.00 Build 0)  -->
<svg version="1.1" id="Layer_1" xmlns="http://www.w3.org/2000/svg" xmlns:xlink="http://www.w3.org/1999/xlink" x="0px" y="0px"
	 viewBox="0 0 27.3 26.3" enable-background="new 0 0 27.3 26.3" xml:space="preserve">
<g>
	<circle fill="none" stroke="#BFA2D1" stroke-width="1.4041" stroke-miterlimit="10" cx="13.7" cy="13.2" r="11.6"/>
	<path fill="#67676B" d="M18.2,13.2c0,0.1,0,0.2-0.1,0.3l-5.2,5.2c-0.1,0.1-0.2,0.1-0.3,0.1s-0.2,0-0.3-0.1L11.9,18
		c-0.1-0.1-0.1-0.2-0.1-0.3s0-0.2,0.1-0.3l4.4-4.4l-4.4-4.4c-0.1-0.1-0.1-0.2-0.1-0.3c0-0.1,0-0.2,0.1-0.3l0.6-0.6
		c0.1-0.1,0.2-0.1,0.3-0.1s0.2,0,0.3,0.1l5.2,5.2C18.2,13,18.2,13.1,18.2,13.2z"/>
</g>
</svg>
