<?xml version="1.0" encoding="utf-8"?>
<!-- Generator: Adobe Illustrator 18.1.1, SVG Export Plug-In . SVG Version: 6.00 Build 0)  -->
<svg version="1.1" id="Layer_1" xmlns="http://www.w3.org/2000/svg" xmlns:xlink="http://www.w3.org/1999/xlink" x="0px" y="0px"
	 viewBox="256 -496 1792 1792" enable-background="new 256 -496 1792 1792" xml:space="preserve">
<path fill="#67676B" d="M1472,336c0-123.3-43.8-228.8-131.5-316.5C1252.8-68.2,1147.3-112,1024-112S795.2-68.2,707.5,19.5
	S576,212.7,576,336s43.8,228.8,131.5,316.5S900.7,784,1024,784s228.8-43.8,316.5-131.5C1428.2,564.8,1472,459.3,1472,336z
	 M1984,1168c0,34.7-12.7,64.7-38,90s-55.3,38-90,38c-36,0-66-12.7-90-38l-343-342c-119.3,82.7-252.3,124-399,124
	c-95.3,0-186.5-18.5-273.5-55.5s-162-87-225-150s-113-138-150-225S320,431.3,320,336s18.5-186.5,55.5-273.5s87-162,150-225
	s138-113,225-150S928.7-368,1024-368s186.5,18.5,273.5,55.5s162,87,225,150s113,138,150,225S1728,240.7,1728,336
	c0,146.7-41.3,279.7-124,399l343,343C1971.7,1102.7,1984,1132.7,1984,1168z"/>
</svg>
